<?xml version="1.0" standalone="no"?><!-- Generator: Gravit.io --><svg xmlns="http://www.w3.org/2000/svg" xmlns:xlink="http://www.w3.org/1999/xlink" style="isolation:isolate" viewBox="0 0 510 220" width="510" height="220"><defs><clipPath id="_clipPath_yyENBspPflaNv3NgyawRisv3PHtzx1q3"><rect width="510" height="220"/></clipPath></defs><g clip-path="url(#_clipPath_yyENBspPflaNv3NgyawRisv3PHtzx1q3)"><path d=" M 52.739 38.643 L 20.537 38.643 L 20.537 20.051 L 57.6 20.051 L 57.6 1.215 L 0 1.215 L 0 94.785 L 20.537 94.785 L 20.537 57.478 L 52.739 57.478 L 52.739 38.643 Z  M 121.341 96 C 147.468 96 169.22 74.491 169.22 47.878 C 169.22 21.995 147.833 0 121.341 0 C 94.972 0 73.22 21.752 73.22 47.878 C 73.22 74.491 95.093 96 121.341 96 Z  M 121.341 18.957 C 136.653 18.957 148.44 32.689 148.44 47.878 C 148.44 63.19 136.653 77.043 121.341 77.043 C 105.787 77.043 93.878 63.19 93.878 47.878 C 93.878 32.689 105.787 18.957 121.341 18.957 Z  M 209.2 59.058 L 215.883 59.058 L 237.271 94.785 L 259.873 94.785 L 235.691 55.656 C 244.926 51.159 252.947 41.438 252.947 29.651 C 252.947 10.208 237.392 1.215 219.65 1.215 L 188.663 1.215 L 188.663 94.785 L 209.2 94.785 L 209.2 59.058 Z  M 209.2 20.051 L 219.65 20.051 C 226.212 20.051 232.41 22.967 232.41 29.651 C 232.41 36.577 226.212 40.101 219.772 40.101 L 209.2 40.101 L 209.2 20.051 Z  M 323.306 96 C 335.944 96 348.096 90.532 358.425 83.119 L 358.425 44.476 L 322.334 44.476 L 322.334 63.311 L 338.739 63.311 L 338.739 73.519 C 333.878 75.949 327.924 77.043 323.306 77.043 C 307.387 77.043 295.843 64.04 295.843 48.121 C 295.843 31.959 307.022 18.957 323.306 18.957 C 330.354 18.957 337.767 20.901 346.881 26.977 L 356.967 11.301 C 344.572 2.795 333.271 0 323.306 0 C 295.357 0 275.063 20.658 275.063 48.121 C 275.063 74.37 294.871 96 323.306 96 Z  M 432.187 38.643 L 399.012 38.643 L 399.012 20.051 L 437.048 20.051 L 437.048 1.215 L 378.476 1.215 L 378.476 94.785 L 438.263 94.785 L 438.263 75.949 L 399.012 75.949 L 399.012 57.478 L 432.187 57.478 L 432.187 38.643 Z " fill-rule="evenodd" fill="rgb(255,255,255)"/><path d=" M 32.603 122.791 L 32.603 216.238 L 53.113 216.238 L 53.113 122.791 L 32.603 122.791 Z  M 103.811 217.451 C 121.044 217.451 135.364 210.655 135.364 189.782 C 135.364 171.214 120.801 163.325 107.451 158.471 C 102.112 156.529 94.83 152.888 94.83 148.519 C 94.83 142.33 98.349 140.388 103.568 140.388 C 108.908 140.388 113.155 141.117 122.621 147.913 L 133.301 133.107 C 120.194 123.277 114.369 121.456 103.568 121.456 C 90.218 121.456 74.563 127.524 74.563 148.519 C 74.563 178.495 115.097 174.854 115.097 189.782 C 115.097 196.092 111.699 198.519 103.811 198.519 C 98.107 198.519 93.01 197.549 83.665 190.995 L 72.985 205.801 C 86.82 215.752 93.616 217.451 103.811 217.451 Z  M 215.431 216.238 L 215.431 197.427 L 175.746 197.427 L 175.746 122.791 L 155.237 122.791 L 155.237 216.238 L 215.431 216.238 Z  M 252.172 198.641 L 285.91 198.641 L 293.313 216.238 L 315.279 216.238 L 269.041 120 L 222.561 216.238 L 244.527 216.238 L 252.172 198.641 Z  M 269.041 160.291 L 277.779 179.83 L 260.425 179.83 L 269.041 160.291 Z  M 410.03 220 L 410.03 122.791 L 389.521 122.791 L 389.521 174.126 L 329.69 120 L 329.69 216.238 L 350.2 216.238 L 350.2 165.874 L 410.03 220 Z  M 462.67 216.238 C 490.34 216.238 510 195.485 510 169.393 C 510 143.422 490.218 122.791 462.67 122.791 L 431.723 122.791 L 431.723 216.238 L 462.67 216.238 Z  M 452.233 197.427 L 452.233 141.602 L 462.67 141.602 C 478.082 141.602 489.248 154.102 489.248 169.393 C 489.248 184.806 478.082 197.427 462.67 197.427 L 452.233 197.427 Z " fill-rule="evenodd" fill="rgb(255,255,255)"/></g></svg>