<?xml version="1.0" standalone="no"?><!-- Generator: Gravit.io --><svg xmlns="http://www.w3.org/2000/svg" xmlns:xlink="http://www.w3.org/1999/xlink" style="isolation:isolate" viewBox="0 0 255 110" width="255" height="110"><defs><clipPath id="_clipPath_hn0vI87jCm4905SZ2pzsYlD9v2l16bsx"><rect width="255" height="110"/></clipPath></defs><g clip-path="url(#_clipPath_hn0vI87jCm4905SZ2pzsYlD9v2l16bsx)"><path d=" M 26.37 19.322 L 10.268 19.322 L 10.268 10.025 L 28.8 10.025 L 28.8 0.608 L 0 0.608 L 0 47.392 L 10.268 47.392 L 10.268 28.739 L 26.37 28.739 L 26.37 19.322 Z  M 60.671 48 C 73.734 48 84.61 37.246 84.61 23.939 C 84.61 10.997 73.916 0 60.671 0 C 47.486 0 36.61 10.876 36.61 23.939 C 36.61 37.246 47.547 48 60.671 48 Z  M 60.671 9.478 C 68.326 9.478 74.22 16.344 74.22 23.939 C 74.22 31.595 68.326 38.522 60.671 38.522 C 52.894 38.522 46.939 31.595 46.939 23.939 C 46.939 16.344 52.894 9.478 60.671 9.478 Z  M 104.6 29.529 L 107.942 29.529 L 118.635 47.392 L 129.937 47.392 L 117.845 27.828 C 122.463 25.58 126.473 20.719 126.473 14.825 C 126.473 5.104 118.696 0.608 109.825 0.608 L 94.332 0.608 L 94.332 47.392 L 104.6 47.392 L 104.6 29.529 Z  M 104.6 10.025 L 109.825 10.025 C 113.106 10.025 116.205 11.484 116.205 14.825 C 116.205 18.289 113.106 20.051 109.886 20.051 L 104.6 20.051 L 104.6 10.025 Z  M 161.653 48 C 167.972 48 174.048 45.266 179.213 41.559 L 179.213 22.238 L 161.167 22.238 L 161.167 31.656 L 169.369 31.656 L 169.369 36.759 C 166.939 37.975 163.962 38.522 161.653 38.522 C 153.694 38.522 147.921 32.02 147.921 24.061 C 147.921 15.98 153.511 9.478 161.653 9.478 C 165.177 9.478 168.883 10.451 173.44 13.489 L 178.483 5.651 C 172.286 1.397 166.635 0 161.653 0 C 147.678 0 137.532 10.329 137.532 24.061 C 137.532 37.185 147.435 48 161.653 48 Z  M 216.094 19.322 L 199.506 19.322 L 199.506 10.025 L 218.524 10.025 L 218.524 0.608 L 189.238 0.608 L 189.238 47.392 L 219.131 47.392 L 219.131 37.975 L 199.506 37.975 L 199.506 28.739 L 216.094 28.739 L 216.094 19.322 Z " fill-rule="evenodd" fill="rgb(255,255,255)"/><path d=" M 16.302 61.396 L 16.302 108.119 L 26.556 108.119 L 26.556 61.396 L 16.302 61.396 Z  M 51.905 108.726 C 60.522 108.726 67.682 105.328 67.682 94.891 C 67.682 85.607 60.4 81.663 53.726 79.235 C 51.056 78.265 47.415 76.444 47.415 74.26 C 47.415 71.165 49.175 70.194 51.784 70.194 C 54.454 70.194 56.578 70.558 61.311 73.956 L 66.65 66.553 C 60.097 61.638 57.184 60.728 51.784 60.728 C 45.109 60.728 37.282 63.762 37.282 74.26 C 37.282 89.248 57.548 87.427 57.548 94.891 C 57.548 98.046 55.849 99.26 51.905 99.26 C 49.053 99.26 46.505 98.774 41.832 95.498 L 36.493 102.9 C 43.41 107.876 46.808 108.726 51.905 108.726 Z  M 107.715 108.119 L 107.715 98.714 L 87.873 98.714 L 87.873 61.396 L 77.618 61.396 L 77.618 108.119 L 107.715 108.119 Z  M 126.086 99.32 L 142.955 99.32 L 146.657 108.119 L 157.64 108.119 L 134.521 60 L 111.28 108.119 L 122.263 108.119 L 126.086 99.32 Z  M 134.521 80.146 L 138.89 89.915 L 130.212 89.915 L 134.521 80.146 Z  M 205.015 110 L 205.015 61.396 L 194.76 61.396 L 194.76 87.063 L 164.845 60 L 164.845 108.119 L 175.1 108.119 L 175.1 82.937 L 205.015 110 Z  M 231.335 108.119 C 245.17 108.119 255 97.743 255 84.697 C 255 71.711 245.109 61.396 231.335 61.396 L 215.862 61.396 L 215.862 108.119 L 231.335 108.119 Z  M 226.117 98.714 L 226.117 70.801 L 231.335 70.801 C 239.041 70.801 244.624 77.051 244.624 84.697 C 244.624 92.403 239.041 98.714 231.335 98.714 L 226.117 98.714 Z " fill-rule="evenodd" fill="rgb(255,255,255)"/></g></svg>