<?xml version="1.0" standalone="no"?><!-- Generator: Gravit.io --><svg xmlns="http://www.w3.org/2000/svg" xmlns:xlink="http://www.w3.org/1999/xlink" style="isolation:isolate" viewBox="0 0 24 24" width="24" height="24"><defs><clipPath id="_clipPath_if9H8wwMSTIE1lH0pyk841ARgc9wCdsp"><rect width="24" height="24"/></clipPath></defs><g clip-path="url(#_clipPath_if9H8wwMSTIE1lH0pyk841ARgc9wCdsp)"><path d=" M 0 0 L 24 0 L 24 24 L 0 24 L 0 0 Z " fill="none"/><path d=" M 4 16 C 4 16.88 4.39 17.67 5 18.22 L 5 20 C 5 20.55 5.45 21 6 21 L 7 21 C 7.55 21 8 20.55 8 20 L 8 19 L 16 19 L 16 20 C 16 20.55 16.45 21 17 21 L 18 21 C 18.55 21 19 20.55 19 20 L 19 18.22 C 19.61 17.67 20 16.88 20 16 L 20 6 C 20 2.5 16.42 2 12 2 C 7.58 2 4 2.5 4 6 L 4 16 L 4 16 Z  M 7.5 17 C 6.67 17 6 16.33 6 15.5 C 6 14.67 6.67 14 7.5 14 C 8.33 14 9 14.67 9 15.5 C 9 16.33 8.33 17 7.5 17 Z  M 16.5 17 C 15.67 17 15 16.33 15 15.5 C 15 14.67 15.67 14 16.5 14 C 17.33 14 18 14.67 18 15.5 C 18 16.33 17.33 17 16.5 17 Z  M 18 11 L 6 11 L 6 6 L 18 6 L 18 11 L 18 11 Z " fill="rgb(65,51,88)"/></g></svg>