<?xml version="1.0" standalone="no"?><!-- Generator: Gravit.io --><svg xmlns="http://www.w3.org/2000/svg" xmlns:xlink="http://www.w3.org/1999/xlink" style="isolation:isolate" viewBox="0 0 24 24" width="24" height="24"><defs><clipPath id="_clipPath_tZdxfH9S8uIKdSXs0mvsbowPA7Q49cfk"><rect width="24" height="24"/></clipPath></defs><g clip-path="url(#_clipPath_tZdxfH9S8uIKdSXs0mvsbowPA7Q49cfk)"><path d=" M 19 16.94 L 19 8.5 C 19 5.71 16.39 5.1 12.99 5.01 L 13.75 3.5 L 17 3.5 L 17 2 L 7 2 L 7 3.5 L 11.75 3.5 L 10.99 5.02 C 7.86 5.11 5 5.73 5 8.5 L 5 16.94 C 5 18.39 6.19 19.6 7.59 19.91 L 6 21.5 L 6 22 L 8.23 22 L 10.23 20 L 14 20 L 16 22 L 18 22 L 18 21.5 L 16.5 20 L 16.42 20 C 18.11 20 19 18.63 19 16.94 Z  M 12 18.5 C 11.17 18.5 10.5 17.83 10.5 17 C 10.5 16.17 11.17 15.5 12 15.5 C 12.83 15.5 13.5 16.17 13.5 17 C 13.5 17.83 12.83 18.5 12 18.5 Z  M 17 14 L 7 14 L 7 9 L 17 9 L 17 14 L 17 14 Z " fill="rgb(65,51,88)"/><path d=" M 0 0 L 24 0 L 24 24 L 0 24 L 0 0 L 0 0 Z " fill="none"/></g></svg>