<?xml version="1.0" standalone="no"?><!-- Generator: Gravit.io --><svg xmlns="http://www.w3.org/2000/svg" xmlns:xlink="http://www.w3.org/1999/xlink" style="isolation:isolate" viewBox="0 0 24 24" width="24" height="24"><defs><clipPath id="_clipPath_4CqvkECLTcdjce3SCcoF8WeCepo2tHhk"><rect width="24" height="24"/></clipPath></defs><g clip-path="url(#_clipPath_4CqvkECLTcdjce3SCcoF8WeCepo2tHhk)"><path d=" M 0 0 L 24 0 L 24 24 L 0 24 L 0 0 Z " fill="none"/><path d=" M 16 11 C 17.66 11 18.99 9.66 18.99 8 C 18.99 6.34 17.66 5 16 5 C 14.34 5 13 6.34 13 8 C 13 9.66 14.34 11 16 11 Z  M 8 11 C 9.66 11 10.99 9.66 10.99 8 C 10.99 6.34 9.66 5 8 5 C 6.34 5 5 6.34 5 8 C 5 9.66 6.34 11 8 11 Z  M 8 13 C 5.67 13 1 14.17 1 16.5 L 1 19 L 15 19 L 15 16.5 C 15 14.17 10.33 13 8 13 Z  M 16 13 C 15.71 13 15.38 13.02 15.03 13.05 C 16.19 13.89 17 15.02 17 16.5 L 17 19 L 23 19 L 23 16.5 C 23 14.17 18.33 13 16 13 Z " fill="rgb(65,51,88)"/></g></svg>