<?xml version="1.0" standalone="no"?><!DOCTYPE svg PUBLIC "-//W3C//DTD SVG 1.1//EN" "http://www.w3.org/Graphics/SVG/1.1/DTD/svg11.dtd"><svg width="100%" height="100%" viewBox="0 0 1191 842" version="1.1" xmlns="http://www.w3.org/2000/svg" xmlns:xlink="http://www.w3.org/1999/xlink" xml:space="preserve" style="fill-rule:evenodd;clip-rule:evenodd;stroke-linejoin:round;stroke-miterlimit:1.41421;"><g id="TYPE"><path d="M178.53,388.348l-17.603,0l0,40.747l17.603,0c11.3,0 20.427,-9.128 20.427,-20.428c0,-11.192 -9.127,-20.319 -20.427,-20.319M160.927,469.841l-16.298,0l0,-97.792l33.901,0c20.319,0 36.726,16.407 36.726,36.618c0,14.235 -8.04,26.513 -19.776,32.597l17.06,28.577l-21.732,0l-14.56,-24.448l-15.321,0l0,24.448Z" style="fill:#74c699;fill-rule:nonzero;"/><path d="M287.511,388.348c-18.037,0 -32.597,14.561 -32.597,32.598c0,18.037 14.56,32.596 32.597,32.596c17.929,0 32.597,-14.559 32.597,-32.596c0,-18.037 -14.668,-32.598 -32.597,-32.598M287.511,372.049c26.947,0 48.896,21.949 48.896,48.897c0,26.947 -21.949,48.895 -48.896,48.895c-27.056,0 -48.896,-21.948 -48.896,-48.895c0,-26.948 21.84,-48.897 48.896,-48.897" style="fill:#74c699;fill-rule:nonzero;"/><path d="M427.677,388.348l-29.881,0l0,81.493l-16.299,0l0,-81.493l-29.881,0l0,-16.299l76.061,0l0,16.299Z" style="fill:#74c699;fill-rule:nonzero;"/><path d="M453.751,372.049l16.299,0l0,40.747l43.463,0l0,-40.747l16.299,0l0,97.792l-16.299,0l0,-40.746l-43.463,0l0,40.746l-16.299,0l0,-97.792Z" style="fill:#74c699;fill-rule:nonzero;"/><path d="M604.782,388.348l-32.597,0l0,24.448l27.164,0l0,16.299l-27.164,0l0,24.447l38.03,0l-5.433,16.299l-48.896,0l0,-97.792l54.329,0l-5.433,16.299Z" style="fill:#74c699;fill-rule:nonzero;"/><path d="M670.191,388.348l-17.603,0l0,40.747l17.603,0c11.3,0 20.428,-9.128 20.428,-20.428c0,-11.192 -9.128,-20.319 -20.428,-20.319M652.588,469.841l-16.298,0l0,-97.792l33.901,0c20.318,0 36.727,16.407 36.727,36.618c0,14.235 -8.041,26.513 -19.777,32.597l17.06,28.577l-21.732,0l-14.56,-24.448l-15.321,0l0,24.448Z" style="fill:#74c699;fill-rule:nonzero;"/><path d="M732.992,372.049l16.299,0l0,40.747l43.463,0l0,-40.747l16.299,0l0,97.792l-16.299,0l0,-40.746l-43.463,0l0,40.746l-16.299,0l0,-97.792Z" style="fill:#74c699;fill-rule:nonzero;"/><path d="M864.792,437.244l22.166,0l-11.083,-27.165l-11.083,27.165ZM919.338,469.841l-19.015,0l-6.628,-16.299l-35.639,0l-6.629,16.299l-19.015,0l43.463,-97.792l43.463,97.792Z" style="fill:#74c699;fill-rule:nonzero;"/><path d="M942.697,372.049l51.612,51.612l51.613,-51.612l0,97.792l-16.299,0l0,-54.329l-35.314,35.314l-35.313,-35.314l0,54.329l-16.299,0l0,-97.792Z" style="fill:#74c699;fill-rule:nonzero;"/></g></svg>
